<svg xmlns="http://www.w3.org/2000/svg" viewBox="0 0 800 600" width="800" height="600">
  <defs>
    <filter id="blur" x="-50%" y="-50%" width="200%" height="200%">
      <feGaussianBlur in="SourceGraphic" stdDeviation="10" />
    </filter>
  </defs>
  
  <!-- Main blood splatter -->
  <path d="M400,200 C550,150 650,300 600,400 C550,500 400,550 300,450 C200,350 250,250 400,200 Z" 
        fill="#8B0000" opacity="0.9" />
  
  <!-- Blood drips -->
  <path d="M520,350 C530,400 540,480 530,520 C525,540 515,545 510,520 C505,480 510,400 520,350 Z" 
        fill="#990000" opacity="0.8" />
  <path d="M450,420 C460,480 465,540 455,580 C450,600 440,605 435,580 C430,540 440,480 450,420 Z" 
        fill="#880000" opacity="0.85" />
  <path d="M350,400 C360,450 365,500 355,530 C350,545 340,550 335,530 C330,500 340,450 350,400 Z" 
        fill="#A00000" opacity="0.8" />
  
  <!-- Blood droplets -->
  <ellipse cx="580" cy="280" rx="20" ry="25" fill="#8B0000" opacity="0.7" />
  <ellipse cx="620" cy="350" rx="15" ry="18" fill="#990000" opacity="0.7" />
  <ellipse cx="540" cy="420" rx="12" ry="15" fill="#800000" opacity="0.75" />
  <ellipse cx="250" cy="350" rx="25" ry="20" fill="#990000" opacity="0.7" />
  <ellipse cx="280" cy="280" rx="18" ry="15" fill="#800000" opacity="0.7" />
  <ellipse cx="220" cy="400" rx="15" ry="12" fill="#8B0000" opacity="0.75" />
  
  <!-- Texture overlay -->
  <rect x="0" y="0" width="800" height="600" fill="url(#noise)" opacity="0.1" />
  
  <!-- Apply blur to edges for a more natural look -->
  <g filter="url(#blur)">
    <path d="M400,200 C550,150 650,300 600,400 C550,500 400,550 300,450 C200,350 250,250 400,200 Z" 
          fill="#8B0000" opacity="0.1" />
  </g>
</svg> 