<svg xmlns="http://www.w3.org/2000/svg" width="200" height="200" viewBox="0 0 200 200">
  <defs>
    <filter id="noise" x="0%" y="0%" width="100%" height="100%">
      <feTurbulence type="fractalNoise" baseFrequency="0.65" numOctaves="3" stitchTiles="stitch" result="noise"/>
      <feColorMatrix type="matrix" values="1 0 0 0 0 0 1 0 0 0 0 0 1 0 0 0 0 0 0.5 0" in="noise" result="coloredNoise"/>
      <feComposite operator="in" in="coloredNoise" in2="SourceGraphic" result="composite"/>
    </filter>
    
    <filter id="glossEffect">
      <feGaussianBlur in="SourceAlpha" stdDeviation="2" result="blur"/>
      <feSpecularLighting result="specOut" in="blur" specularExponent="20" lightingColor="#ffffff">
        <fePointLight x="150" y="60" z="20"/>
      </feSpecularLighting>
      <feComposite in="specOut" in2="SourceAlpha" operator="in" result="specOut"/>
      <feComposite in="SourceGraphic" in2="specOut" operator="arithmetic" k1="0" k2="1" k3="1" k4="0"/>
    </filter>
    
    <radialGradient id="sheen" cx="0.5" cy="0.5" r="0.5" fx="0.35" fy="0.35">
      <stop offset="0%" stop-color="#ff0000" stop-opacity="0.2"/>
      <stop offset="40%" stop-color="#900000" stop-opacity="0.1"/>
      <stop offset="100%" stop-color="#500000" stop-opacity="0"/>
    </radialGradient>
    
    <pattern id="blood-texture" patternUnits="userSpaceOnUse" width="200" height="200">
      <!-- Base texture -->
      <rect x="0" y="0" width="200" height="200" fill="#800000" />
      
      <!-- Organic texture background -->
      <g opacity="0.7">
        <path d="M0,0 Q40,30 20,60 Q0,90 30,110 Q60,130 40,160 Q20,190 50,200 L0,200 Z" fill="#700000" />
        <path d="M200,0 Q160,40 180,70 Q200,100 170,120 Q140,140 160,170 Q180,200 150,200 L200,200 Z" fill="#750000" />
        <path d="M80,0 Q120,20 100,40 Q80,60 120,80 Q160,100 130,140 Q100,180 130,200 L80,200 Z" fill="#6A0000" />
      </g>
      
      <!-- Darker blotches with more organic shapes -->
      <path d="M30,20 Q50,10 70,30 Q80,50 60,60 Q40,70 30,50 Q20,30 30,20" fill="#600000" opacity="0.7" />
      <path d="M140,50 Q170,40 180,70 Q170,100 140,90 Q110,80 120,60 Q130,40 140,50" fill="#580000" opacity="0.75" />
      <path d="M20,100 Q40,90 50,110 Q40,130 20,135 Q0,120 20,100" fill="#520000" opacity="0.8" />
      <path d="M120,140 Q150,130 165,150 Q155,170 130,175 Q105,165 120,140" fill="#5A0000" opacity="0.75" />
      
      <!-- More varied blood pools -->
      <ellipse cx="80" cy="50" rx="30" ry="20" fill="#950000" opacity="0.4" filter="url(#glossEffect)" />
      <ellipse cx="170" cy="110" rx="25" ry="20" fill="#980000" opacity="0.5" filter="url(#glossEffect)" />
      <ellipse cx="40" cy="160" rx="25" ry="20" fill="#A00000" opacity="0.4" filter="url(#glossEffect)" />
      <ellipse cx="120" cy="20" rx="30" ry="15" fill="#9A0000" opacity="0.5" filter="url(#glossEffect)" />
      
      <!-- Blood rivulets -->
      <path d="M20,30 C30,45 25,60 35,75 C45,90 40,105 30,120 C20,135 25,150 35,165 C45,180 35,195 25,200" 
            fill="none" stroke="#650000" stroke-width="4" opacity="0.6" />
      <path d="M60,10 C70,30 65,50 75,70 C85,90 80,110 70,130 C60,150 70,170 80,190" 
            fill="none" stroke="#6A0000" stroke-width="3" opacity="0.5" />
      <path d="M110,5 C120,25 115,45 125,65 C135,85 130,105 120,125 C110,145 120,165 130,185" 
            fill="none" stroke="#700000" stroke-width="4" opacity="0.6" />
      <path d="M150,15 C160,35 155,55 165,75 C175,95 170,115 160,135 C150,155 160,175 170,195" 
            fill="none" stroke="#750000" stroke-width="3" opacity="0.5" />
      
      <!-- Clotted areas -->
      <g opacity="0.8">
        <circle cx="40" cy="45" r="4" fill="#400000" />
        <circle cx="155" cy="65" r="5" fill="#450000" />
        <circle cx="85" cy="125" r="6" fill="#4A0000" />
        <circle cx="175" cy="145" r="4" fill="#400000" />
        <circle cx="65" cy="175" r="5" fill="#450000" />
      </g>
      
      <!-- Small blood speckles -->
      <g opacity="0.6">
        <circle cx="15" cy="25" r="1" fill="#950000" />
        <circle cx="35" cy="45" r="0.8" fill="#900000" />
        <circle cx="55" cy="15" r="1.2" fill="#980000" />
        <circle cx="85" cy="35" r="0.7" fill="#920000" />
        <circle cx="115" cy="25" r="1.1" fill="#950000" />
        <circle cx="135" cy="45" r="0.9" fill="#900000" />
        <circle cx="155" cy="15" r="1.3" fill="#980000" />
        <circle cx="185" cy="35" r="0.8" fill="#920000" />
        <circle cx="15" cy="85" r="1" fill="#950000" />
        <circle cx="35" cy="105" r="0.8" fill="#900000" />
        <circle cx="55" cy="75" r="1.2" fill="#980000" />
        <circle cx="85" cy="95" r="0.7" fill="#920000" />
        <circle cx="115" cy="85" r="1.1" fill="#950000" />
        <circle cx="135" cy="105" r="0.9" fill="#900000" />
        <circle cx="155" cy="75" r="1.3" fill="#980000" />
        <circle cx="185" cy="95" r="0.8" fill="#920000" />
        <circle cx="15" cy="145" r="1" fill="#950000" />
        <circle cx="35" cy="165" r="0.8" fill="#900000" />
        <circle cx="55" cy="135" r="1.2" fill="#980000" />
        <circle cx="85" cy="155" r="0.7" fill="#920000" />
        <circle cx="115" cy="145" r="1.1" fill="#950000" />
        <circle cx="135" cy="165" r="0.9" fill="#900000" />
        <circle cx="155" cy="135" r="1.3" fill="#980000" />
        <circle cx="185" cy="155" r="0.8" fill="#920000" />
      </g>
      
      <!-- Glossy highlight overlay -->
      <rect x="0" y="0" width="200" height="200" fill="url(#sheen)" />
      
      <!-- Apply noise filter for texture -->
      <rect x="0" y="0" width="200" height="200" fill="#800000" opacity="0.12" filter="url(#noise)" />
    </pattern>
  </defs>
  
  <!-- Apply the blood texture pattern -->
  <rect x="0" y="0" width="200" height="200" fill="url(#blood-texture)" />
</svg> 